<svg width="20" height="23" viewBox="0 0 20 23" fill="none" xmlns="http://www.w3.org/2000/svg">
<path d="M1 14.4827H18.0526M9.52632 1C11.3031 1 13.007 1.71025 14.2634 2.97449C15.5198 4.23874 16.2256 5.95342 16.2256 7.74134V14.4827H2.82707V7.74134C2.82707 5.95342 3.53288 4.23874 4.78923 2.97449C6.04558 1.71025 7.74956 1 9.52632 1ZM11.9624 18.9197C11.9624 20.2736 10.8717 21.3711 9.52632 21.3711C8.1809 21.3711 7.09023 20.2736 7.09023 18.9197C7.09023 17.5658 8.1809 16.4683 9.52632 16.4683C10.8717 16.4683 11.9624 17.5658 11.9624 18.9197Z" stroke="#BCBCBC" stroke-width="2" stroke-linecap="round" stroke-linejoin="round"/>
</svg>
