<svg width="18" height="18" viewBox="0 0 18 18" fill="none" xmlns="http://www.w3.org/2000/svg">
<path d="M9 5.4C9.98134 5.4 10.9225 5.77928 11.6164 6.45442C12.3103 7.12955 12.7002 8.04522 12.7002 9C12.7002 9.95478 12.3103 10.8705 11.6164 11.5456C10.9225 12.2207 9.98134 12.6 9 12.6C8.01866 12.6 7.07751 12.2207 6.3836 11.5456C5.68968 10.8705 5.29985 9.95478 5.29985 9C5.29985 8.04522 5.68968 7.12955 6.3836 6.45442C7.07751 5.77928 8.01866 5.4 9 5.4ZM9 7.2C8.50933 7.2 8.03876 7.38964 7.6918 7.72721C7.34484 8.06477 7.14992 8.52261 7.14992 9C7.14992 9.47739 7.34484 9.93523 7.6918 10.2728C8.03876 10.6104 8.50933 10.8 9 10.8C9.49067 10.8 9.96124 10.6104 10.3082 10.2728C10.6552 9.93523 10.8501 9.47739 10.8501 9C10.8501 8.52261 10.6552 8.06477 10.3082 7.72721C9.96124 7.38964 9.49067 7.2 9 7.2ZM7.14992 18C6.91866 18 6.72441 17.838 6.68741 17.622L6.34514 15.237C5.76237 15.012 5.26285 14.706 4.78183 14.346L2.47848 15.255C2.27497 15.327 2.02521 15.255 1.91421 15.057L0.0641343 11.943C-0.0561206 11.745 -0.000618204 11.502 0.175139 11.367L2.12697 9.873L2.06222 9L2.12697 8.1L0.175139 6.633C-0.000618204 6.498 -0.0561206 6.255 0.0641343 6.057L1.91421 2.943C2.02521 2.745 2.27497 2.664 2.47848 2.745L4.78183 3.645C5.26285 3.294 5.76237 2.988 6.34514 2.763L6.68741 0.378C6.72441 0.162 6.91866 0 7.14992 0H10.8501C11.0813 0 11.2756 0.162 11.3126 0.378L11.6549 2.763C12.2376 2.988 12.7372 3.294 13.2182 3.645L15.5215 2.745C15.725 2.664 15.9748 2.745 16.0858 2.943L17.9359 6.057C18.0561 6.255 18.0006 6.498 17.8249 6.633L15.873 8.1L15.9378 9L15.873 9.9L17.8249 11.367C18.0006 11.502 18.0561 11.745 17.9359 11.943L16.0858 15.057C15.9748 15.255 15.725 15.336 15.5215 15.255L13.2182 14.355C12.7372 14.706 12.2376 15.012 11.6549 15.237L11.3126 17.622C11.2756 17.838 11.0813 18 10.8501 18H7.14992ZM8.30622 1.8L7.96396 4.149C6.85391 4.374 5.87337 4.95 5.16109 5.751L2.93175 4.815L2.23797 5.985L4.1898 7.38C3.81979 8.433 3.81979 9.576 4.1898 10.62L2.22872 12.024L2.9225 13.194L5.17034 12.258C5.88262 13.05 6.85391 13.626 7.95471 13.842L8.29697 16.2H9.70303L10.0453 13.851C11.1461 13.626 12.1174 13.05 12.8297 12.258L15.0775 13.194L15.7713 12.024L13.8102 10.629C14.1802 9.576 14.1802 8.433 13.8102 7.38L15.762 5.985L15.0682 4.815L12.8389 5.751C12.1266 4.95 11.1461 4.374 10.036 4.158L9.69378 1.8H8.30622Z" fill="#BCBCBC"/>
</svg>
