<svg width="18" height="19" viewBox="0 0 18 19" fill="none" xmlns="http://www.w3.org/2000/svg">
<path d="M8.1 14.6672H9.9V12.8338H8.1V14.6672ZM9 0C7.8181 0 6.64778 0.237111 5.55585 0.697796C4.46392 1.15848 3.47177 1.83372 2.63604 2.68495C0.948212 4.40409 0 6.73575 0 9.16699C0 11.5982 0.948212 13.9299 2.63604 15.649C3.47177 16.5003 4.46392 17.1755 5.55585 17.6362C6.64778 18.0969 7.8181 18.334 9 18.334C11.3869 18.334 13.6761 17.3682 15.364 15.649C17.0518 13.9299 18 11.5982 18 9.16699C18 7.96317 17.7672 6.77113 17.3149 5.65894C16.8626 4.54675 16.1997 3.53618 15.364 2.68495C14.5282 1.83372 13.5361 1.15848 12.4442 0.697796C11.3522 0.237111 10.1819 0 9 0ZM9 16.5006C5.031 16.5006 1.8 13.2096 1.8 9.16699C1.8 5.12435 5.031 1.8334 9 1.8334C12.969 1.8334 16.2 5.12435 16.2 9.16699C16.2 13.2096 12.969 16.5006 9 16.5006ZM9 3.6668C8.04522 3.6668 7.12955 4.05312 6.45442 4.74078C5.77928 5.42843 5.4 6.3611 5.4 7.33359H7.2C7.2 6.84735 7.38964 6.38101 7.72721 6.03719C8.06477 5.69336 8.52261 5.5002 9 5.5002C9.47739 5.5002 9.93523 5.69336 10.2728 6.03719C10.6104 6.38101 10.8 6.84735 10.8 7.33359C10.8 9.16699 8.1 8.93782 8.1 11.9171H9.9C9.9 9.85452 12.6 9.62534 12.6 7.33359C12.6 6.3611 12.2207 5.42843 11.5456 4.74078C10.8705 4.05312 9.95478 3.6668 9 3.6668Z" fill="#BCBCBC"/>
</svg>
