<svg width="152" height="66" viewBox="0 0 152 66" fill="none" xmlns="http://www.w3.org/2000/svg">
<g opacity="0.7" filter="url(#filter0_f_166_338)">
<path d="M87.0916 12.3545C88.2416 12.4304 89.397 12.4462 90.5389 12.5963C91.8382 12.7671 93.1335 13.0152 94.4179 13.3093C96.5509 13.7993 98.6852 14.3004 100.798 14.8964C102.594 15.4022 104.36 16.0519 106.142 16.6336C108.879 17.5299 111.482 18.8435 114.09 20.1319C116.113 21.1309 118.107 22.2106 120.133 23.2033C121.692 23.9684 123.257 24.7319 124.861 25.3547C126.645 26.0487 128.461 26.6446 130.29 27.1631C131.416 27.4824 132.585 27.6389 133.743 27.7512C134.953 27.8666 136.173 27.865 137.39 27.8666C137.908 27.8666 138.426 27.748 138.982 27.7749C138.634 28.0246 138.287 28.2776 137.936 28.521C137.395 28.8956 136.86 29.2798 136.308 29.626C136.111 29.7493 135.868 29.8394 135.647 29.8378C134.221 29.8235 132.797 29.7809 131.371 29.7413C130.393 29.7145 129.416 29.675 128.438 29.6433C127.237 29.6054 126.035 29.5706 124.835 29.5327C123.917 29.5027 122.999 29.4663 122.08 29.4363C120.849 29.3967 119.617 29.3635 118.387 29.324C117.499 29.2956 116.61 29.2592 115.722 29.2292C114.507 29.1897 113.29 29.1549 112.074 29.1169C111.051 29.0837 110.029 29.049 109.007 29.0142C107.969 28.9794 106.932 28.9462 105.895 28.9114C104.872 28.8782 103.85 28.8419 102.829 28.8103C101.583 28.7708 100.336 28.7376 99.0912 28.698C98.172 28.668 97.2542 28.6316 96.335 28.6016C95.2081 28.5637 94.0812 28.5305 92.9543 28.4941C91.8871 28.4593 90.8199 28.4261 89.7527 28.3882C89.6428 28.385 89.5328 28.3629 89.302 28.3345C89.4513 28.2444 89.4921 28.1985 89.5341 28.1969C90.3325 28.159 91.1322 28.1448 91.9292 28.0879C93.2231 27.9962 94.5156 27.8729 95.8095 27.7733C96.4137 27.7259 97.0193 27.6943 97.6248 27.6674C98.4978 27.6279 99.3722 27.6184 100.244 27.5599C101.523 27.4729 102.799 27.3481 104.078 27.2548C104.479 27.2263 104.886 27.2833 105.285 27.2437C106.479 27.1252 107.664 26.9687 108.708 26.1767C109.684 25.4353 110.166 23.2665 109.559 22.3544C109.292 21.9529 108.947 21.5245 108.556 21.3427C106.294 20.2899 104.033 19.2134 101.72 18.3298C99.7347 17.5694 97.6914 16.9956 95.6507 16.455C94.4029 16.1246 93.1104 16.0345 91.8423 15.8053C89.4269 15.3706 86.9925 15.4607 84.5676 15.5192C83.2995 15.5492 82.0259 15.7721 80.7755 16.0314C79.1136 16.3775 77.4558 16.7806 75.8225 17.2738C73.1586 18.0769 70.6401 19.3431 68.2043 20.8132C65.2947 22.5694 62.5725 24.6702 60.0186 27.0635C59.6642 27.3955 59.3234 27.7496 58.9555 28.0626C58.8129 28.1843 58.6174 28.2633 58.4409 28.2791C57.8842 28.3313 57.3235 28.3471 56.7641 28.3756C56.6691 28.3455 56.5727 28.2918 56.4776 28.2902C54.4003 28.287 52.323 28.2902 50.2457 28.2965C50.1493 28.2965 50.0529 28.3487 49.9551 28.3771C49.4704 28.3471 48.9857 28.287 48.5024 28.2934C47.4949 28.3076 46.4875 28.3519 45.4801 28.3914C43.8522 28.4562 42.2242 28.5099 40.5977 28.6048C39.3785 28.6759 38.1606 28.7818 36.9454 28.9162C35.6759 29.0569 34.4105 29.2355 33.1451 29.4236C31.6109 29.6528 30.0672 29.8425 28.5492 30.1776C26.6878 30.5886 24.8209 31.0313 23.0043 31.6493C20.9989 32.3322 19.018 33.1463 17.0819 34.0616C15.583 34.7698 14.1696 35.7198 12.7182 36.5624C12.5648 36.6509 12.4113 36.7378 12.1927 36.7568C12.3204 36.5466 12.4317 36.3173 12.5797 36.1308C14.2307 34.0632 16.1668 32.4508 18.3432 31.2115C21.041 29.675 23.8705 28.5953 26.8046 27.8729C28.0686 27.5615 29.3286 27.2263 30.5994 26.9608C31.5335 26.7663 32.4812 26.6652 33.4235 26.5261C34.6278 26.349 35.8321 26.1625 37.0377 26.0044C37.5496 25.938 38.0696 25.9396 38.5842 25.8969C39.7871 25.7973 40.9901 25.6883 42.193 25.5855C42.3111 25.576 42.432 25.5839 42.5501 25.5823C44.899 25.5397 47.2478 25.497 49.5967 25.4527C49.9565 25.4527 50.3149 25.4527 50.6747 25.4527C52.1872 25.6788 53.5952 25.1334 55.0031 24.6339C58.1829 23.5052 61.1659 21.8517 64.0877 20.0291C66.0061 18.8325 67.9341 17.6485 69.8947 16.5498C72.5504 15.0608 75.3215 13.9163 78.2134 13.2223C79.4666 12.922 80.747 12.7528 82.0219 12.5932C83.0768 12.4604 84.1399 12.4288 85.2003 12.3529C85.8303 12.3529 86.4603 12.3529 87.0902 12.3529L87.0916 12.3545Z" fill="white"/>
<path d="M131.374 48.4719C131.071 48.5051 130.768 48.5683 130.464 48.5683C115.42 48.5731 100.378 48.5731 85.3346 48.5715C83.6496 48.5715 81.9661 48.562 80.2811 48.5588C80.4237 48.5288 80.5649 48.4719 80.7075 48.4719C97.5663 48.4672 114.425 48.4672 131.284 48.4672C131.314 48.4672 131.344 48.4703 131.374 48.4719Z" fill="#009CCC"/>
<path d="M132.165 44.3303C132.201 44.3287 132.235 44.3256 132.27 44.324C132.246 44.3366 132.222 44.3524 132.197 44.3603C132.188 44.3619 132.175 44.3414 132.165 44.3303Z" fill="#457488"/>
<path d="M115.179 32.375C115.156 32.3844 115.134 32.3987 115.111 32.4034C115.105 32.4034 115.095 32.3781 115.086 32.3655C115.118 32.3686 115.148 32.3718 115.179 32.375Z" fill="#D2D4D6"/>
<path d="M82.8827 32.3671C82.8569 32.3939 82.8311 32.4224 82.8066 32.4493C82.8324 32.4224 82.8582 32.3939 82.8827 32.3671Z" fill="#D2D4D6"/>
<path d="M21.8449 27.5013L23.7145 22.9519C23.8 22.7448 23.9833 22.6183 24.1802 22.631L48.9437 24.9721C48.9437 24.9721 32.7976 23.6269 22.4531 28.2743C22.0445 28.4577 21.6548 27.9598 21.8435 27.4998L21.8449 27.5013Z" fill="#C94480"/>
</g>
<path d="M89.7421 12.3545C90.9328 12.4304 92.1291 12.4462 93.3114 12.5963C94.6567 12.7671 95.9978 13.0152 97.3277 13.3093C99.5361 13.7993 101.746 14.3004 103.933 14.8964C105.793 15.4022 107.622 16.0519 109.466 16.6336C112.301 17.5299 114.995 18.8435 117.696 20.1319C119.79 21.1309 121.856 22.2106 123.953 23.2033C125.567 23.9684 127.188 24.7319 128.848 25.3547C130.695 26.0487 132.576 26.6446 134.47 27.1631C135.635 27.4824 136.845 27.6389 138.044 27.7512C139.297 27.8666 140.561 27.865 141.82 27.8666C142.357 27.8666 142.893 27.748 143.469 27.7749C143.108 28.0246 142.75 28.2776 142.385 28.521C141.826 28.8956 141.272 29.2798 140.7 29.626C140.496 29.7493 140.244 29.8394 140.015 29.8378C138.539 29.8235 137.065 29.7809 135.589 29.7413C134.576 29.7145 133.564 29.675 132.552 29.6433C131.308 29.6054 130.064 29.5706 128.821 29.5327C127.871 29.5027 126.921 29.4663 125.969 29.4363C124.694 29.3967 123.419 29.3635 122.145 29.324C121.226 29.2956 120.305 29.2592 119.386 29.2292C118.127 29.1897 116.868 29.1549 115.608 29.1169C114.55 29.0837 113.491 29.049 112.433 29.0142C111.359 28.9794 110.285 28.9462 109.211 28.9114C108.152 28.8782 107.094 28.8419 106.036 28.8103C104.746 28.7708 103.455 28.7376 102.166 28.698C101.215 28.668 100.264 28.6316 99.3126 28.6016C98.1458 28.5637 96.979 28.5305 95.8122 28.4941C94.7073 28.4593 93.6024 28.4261 92.4974 28.3882C92.3836 28.385 92.2697 28.3629 92.0307 28.3345C92.1854 28.2444 92.2275 28.1985 92.2711 28.1969C93.0977 28.159 93.9257 28.1448 94.7509 28.0879C96.0906 27.9962 97.4289 27.8729 98.7686 27.7733C99.3941 27.7259 100.021 27.6943 100.648 27.6674C101.552 27.6279 102.457 27.6184 103.36 27.5599C104.684 27.4729 106.006 27.3481 107.33 27.2548C107.744 27.2263 108.166 27.2833 108.579 27.2437C109.815 27.1252 111.042 26.9687 112.123 26.1767C113.134 25.4353 113.633 23.2665 113.005 22.3544C112.728 21.9529 112.371 21.5245 111.966 21.3427C109.624 20.2899 107.283 19.2134 104.888 18.3298C102.833 17.5694 100.717 16.9956 98.6041 16.455C97.3122 16.1246 95.9739 16.0345 94.6609 15.8053C92.1601 15.3706 89.6395 15.4607 87.1288 15.5192C85.8158 15.5492 84.4972 15.7721 83.2025 16.0314C81.4818 16.3775 79.7654 16.7806 78.0742 17.2738C75.3161 18.0769 72.7084 19.3431 70.1864 20.8132C67.1739 22.5694 64.3553 24.6702 61.711 27.0635C61.3441 27.3955 60.9913 27.7496 60.6103 28.0626C60.4627 28.1843 60.2603 28.2633 60.0775 28.2791C59.5012 28.3313 58.9206 28.3471 58.3414 28.3756C58.243 28.3455 58.1432 28.2918 58.0448 28.2902C55.894 28.287 53.7431 28.2902 51.5923 28.2965C51.4925 28.2965 51.3927 28.3487 51.2915 28.3771C50.7896 28.3471 50.2877 28.287 49.7873 28.2934C48.7442 28.3076 47.7011 28.3519 46.658 28.3914C44.9725 28.4562 43.287 28.5099 41.6029 28.6048C40.3405 28.6759 39.0795 28.7818 37.8214 28.9162C36.507 29.0569 35.1968 29.2355 33.8866 29.4236C32.2981 29.6528 30.6997 29.8425 29.1281 30.1776C27.2008 30.5886 25.2678 31.0313 23.3869 31.6493C21.3106 32.3322 19.2596 33.1463 17.2549 34.0616C15.703 34.7698 14.2396 35.7198 12.7368 36.5624C12.5779 36.6509 12.4191 36.7378 12.1927 36.7568C12.3249 36.5466 12.4402 36.3173 12.5934 36.1308C14.3028 34.0632 16.3074 32.4508 18.5609 31.2115C21.3542 29.675 24.2838 28.5953 27.3217 27.8729C28.6304 27.5615 29.935 27.2263 31.2508 26.9608C32.218 26.7663 33.1992 26.6652 34.1748 26.5261C35.4217 26.349 36.6686 26.1625 37.917 26.0044C38.4469 25.938 38.9853 25.9396 39.5181 25.8969C40.7636 25.7973 42.0092 25.6883 43.2547 25.5855C43.377 25.576 43.5021 25.5839 43.6244 25.5823C46.0564 25.5397 48.4884 25.497 50.9203 25.4527C51.2929 25.4527 51.664 25.4527 52.0365 25.4527C53.6026 25.6788 55.0603 25.1334 56.5181 24.6339C59.8104 23.5052 62.8989 21.8517 65.9241 20.0291C67.9105 18.8325 69.9067 17.6485 71.9366 16.5498C74.6863 15.0608 77.5555 13.9163 80.5498 13.2223C81.8473 12.922 83.173 12.7528 84.493 12.5932C85.5853 12.4604 86.686 12.4288 87.7839 12.3529C88.4362 12.3529 89.0884 12.3529 89.7407 12.3529L89.7421 12.3545Z" fill="white"/>
<path d="M136.411 44.3304C136.448 44.3288 136.484 44.3257 136.521 44.3241C136.495 44.3367 136.471 44.3525 136.444 44.3605C136.435 44.362 136.421 44.3415 136.411 44.3304Z" fill="#457488"/>
<path d="M118.825 32.375C118.801 32.3844 118.778 32.3987 118.753 32.4034C118.748 32.4034 118.736 32.3781 118.728 32.3655C118.761 32.3686 118.792 32.3718 118.825 32.375Z" fill="#D2D4D6"/>
<path d="M85.3856 32.3669C85.3584 32.3938 85.3312 32.4223 85.3054 32.4491C85.3326 32.4223 85.3598 32.3938 85.3856 32.3669Z" fill="#D2D4D6"/>
<path d="M22.1865 27.5013L24.1222 22.9519C24.2108 22.7448 24.4006 22.6183 24.6044 22.631L50.2443 24.9721C50.2443 24.9721 33.5269 23.6269 22.8163 28.2743C22.3931 28.4577 21.9897 27.9598 22.1851 27.4998L22.1865 27.5013Z" fill="#78B591"/>
<path d="M16.2106 45.3511L16.205 45.3939L16.1726 45.4042C16.0993 45.4966 15.9711 45.5822 15.9612 45.6832C15.8752 46.6569 15.778 47.6307 15.747 48.6062C15.7005 50.1054 16.3698 51.0176 17.5986 51.2144C17.7818 51.2281 17.9664 51.252 18.1496 51.252C21.3567 51.2538 24.5653 51.252 27.7725 51.252H28.2741C28.1163 52.0598 27.9768 52.7855 27.8359 53.5094C27.7203 53.9971 27.6062 54.4849 27.485 55C27.3821 55 27.2905 55 27.2003 55C22.4305 55 17.6592 55 12.8893 54.9966C12.6625 54.9966 12.4314 54.9521 12.2087 54.8956C11.7747 54.7844 11.3449 54.6509 10.9123 54.5259L10.9166 54.5294C10.7897 54.4164 10.6629 54.3035 10.5361 54.1905L10.5445 54.1974C10.4811 54.1563 10.4191 54.1152 10.3557 54.0741L10.3585 54.0758C10.1725 53.8499 9.98512 53.6223 9.79912 53.3964L9.80194 53.3998C9.70753 53.2475 9.61452 53.0969 9.52011 52.9446L9.52293 52.948C9.48911 52.7889 9.45107 52.6314 9.42148 52.4723C9.2707 51.6337 9.00438 50.7882 9.00015 49.9428C8.99451 48.6011 9.15092 47.2559 9.26506 45.9142C9.31861 45.2827 9.43698 44.658 9.52575 44.0299C9.5483 43.9803 9.57648 43.9341 9.59198 43.8811C10.343 41.2027 11.8043 39.339 13.9631 38.2848C14.421 38.0606 14.9044 37.9117 15.375 37.7286C15.7907 37.7098 16.2078 37.6738 16.6235 37.6738C49.0882 37.6721 81.5544 37.6738 114.019 37.6704C121.245 37.6704 128.472 37.6584 135.698 37.6516C135.71 37.6636 135.724 37.6858 135.731 37.6841C135.758 37.6755 135.782 37.6584 135.807 37.6447C135.959 37.6019 136.113 37.5592 136.265 37.5181C136.403 37.5181 136.547 37.5506 136.678 37.5181C138.755 36.9773 140.413 35.6595 141.634 33.5442C141.725 33.3851 141.766 33.1814 141.831 33L141.825 33.0068C141.886 33.0376 142.001 33.0719 142 33.0993C141.983 33.4621 141.979 33.8317 141.918 34.186C141.728 35.3001 141.519 36.4125 141.014 37.3983C140.984 37.4565 141.005 37.5557 141.004 37.6362L141.007 37.6327C140.79 38.0093 140.571 38.3858 140.354 38.7623L140.357 38.7588C140.233 38.9129 140.109 39.0652 139.985 39.2192L139.991 39.2124C139.834 39.4023 139.676 39.5923 139.52 39.784L139.526 39.7771C139.399 39.9277 139.273 40.0766 139.147 40.2272C139.023 40.3402 138.897 40.4531 138.773 40.5678L138.776 40.5661C138.59 40.7167 138.403 40.8673 138.217 41.0179C138.217 41.0179 138.218 41.0179 138.218 41.0162C137.502 41.3499 136.785 41.6819 136.069 42.0156C135.982 42.055 135.896 42.0944 135.808 42.1337C135.497 42.1354 135.187 42.1389 134.875 42.1406C134.844 42.1389 134.813 42.1354 134.782 42.1354C117.285 42.1354 99.7884 42.1354 82.2913 42.1406C82.1434 42.1406 81.9968 42.2022 81.8489 42.2347L81.8559 42.2655C81.7925 42.2672 81.7291 42.2706 81.6657 42.2723C81.4966 42.2655 81.3261 42.2501 81.157 42.2501C60.7769 42.2501 40.3968 42.2501 20.0167 42.2501C19.8321 42.2501 19.6475 42.2689 19.4615 42.2792C18.6047 42.2895 17.8607 42.6506 17.2224 43.3368C17.1956 43.3916 17.1702 43.4464 17.1435 43.5011L17.1477 43.4943C17.0533 43.6089 16.9589 43.7236 16.8645 43.8383L16.8687 43.8314C16.6108 44.3003 16.3529 44.7693 16.0993 45.2416C16.0965 45.2485 16.1683 45.3135 16.205 45.3511H16.2106Z" fill="#78B591"/>
<defs>
<filter id="filter0_f_166_338" x="0.192749" y="0.352905" width="150.79" height="60.2195" filterUnits="userSpaceOnUse" color-interpolation-filters="sRGB">
<feFlood flood-opacity="0" result="BackgroundImageFix"/>
<feBlend mode="normal" in="SourceGraphic" in2="BackgroundImageFix" result="shape"/>
<feGaussianBlur stdDeviation="6" result="effect1_foregroundBlur_166_338"/>
</filter>
</defs>
</svg>
