<svg width="152" height="66" viewBox="0 0 152 66" fill="none" xmlns="http://www.w3.org/2000/svg">
<path d="M22.852 46.14C22.1053 46.14 21.41 46.0187 20.766 45.776C20.1313 45.524 19.576 45.174 19.1 44.726C18.6333 44.2687 18.2693 43.732 18.008 43.116C17.7467 42.5 17.616 41.828 17.616 41.1C17.616 40.372 17.7467 39.7 18.008 39.084C18.2693 38.468 18.638 37.936 19.114 37.488C19.59 37.0307 20.1453 36.6807 20.78 36.438C21.4147 36.186 22.11 36.06 22.866 36.06C23.6687 36.06 24.4013 36.2 25.064 36.48C25.7267 36.7507 26.2867 37.1567 26.744 37.698L25.568 38.804C25.2133 38.4213 24.8167 38.1367 24.378 37.95C23.9393 37.754 23.4633 37.656 22.95 37.656C22.4367 37.656 21.9653 37.74 21.536 37.908C21.116 38.076 20.7473 38.314 20.43 38.622C20.122 38.93 19.8793 39.294 19.702 39.714C19.534 40.134 19.45 40.596 19.45 41.1C19.45 41.604 19.534 42.066 19.702 42.486C19.8793 42.906 20.122 43.27 20.43 43.578C20.7473 43.886 21.116 44.124 21.536 44.292C21.9653 44.46 22.4367 44.544 22.95 44.544C23.4633 44.544 23.9393 44.4507 24.378 44.264C24.8167 44.068 25.2133 43.774 25.568 43.382L26.744 44.502C26.2867 45.034 25.7267 45.44 25.064 45.72C24.4013 46 23.664 46.14 22.852 46.14ZM32.8575 46V44.488L32.7595 44.166V41.52C32.7595 41.0067 32.6055 40.61 32.2975 40.33C31.9895 40.0407 31.5228 39.896 30.8975 39.896C30.4775 39.896 30.0622 39.9613 29.6515 40.092C29.2502 40.2227 28.9095 40.4047 28.6295 40.638L27.9435 39.364C28.3448 39.056 28.8208 38.8273 29.3715 38.678C29.9315 38.5193 30.5102 38.44 31.1075 38.44C32.1902 38.44 33.0255 38.7013 33.6135 39.224C34.2108 39.7373 34.5095 40.5353 34.5095 41.618V46H32.8575ZM30.5055 46.098C29.9455 46.098 29.4555 46.0047 29.0355 45.818C28.6155 45.622 28.2888 45.356 28.0555 45.02C27.8315 44.6747 27.7195 44.2873 27.7195 43.858C27.7195 43.438 27.8175 43.06 28.0135 42.724C28.2188 42.388 28.5502 42.122 29.0075 41.926C29.4648 41.73 30.0715 41.632 30.8275 41.632H32.9975V42.794H30.9535C30.3562 42.794 29.9548 42.892 29.7495 43.088C29.5442 43.2747 29.4415 43.508 29.4415 43.788C29.4415 44.1053 29.5675 44.3573 29.8195 44.544C30.0715 44.7307 30.4215 44.824 30.8695 44.824C31.2988 44.824 31.6815 44.726 32.0175 44.53C32.3628 44.334 32.6102 44.0447 32.7595 43.662L33.0535 44.712C32.8855 45.1507 32.5822 45.4913 32.1435 45.734C31.7142 45.9767 31.1682 46.098 30.5055 46.098ZM36.7554 46V38.524H38.4214V40.582L38.2254 39.98C38.4494 39.476 38.7994 39.0933 39.2754 38.832C39.7608 38.5707 40.3628 38.44 41.0814 38.44V40.106C41.0068 40.0873 40.9368 40.078 40.8714 40.078C40.8061 40.0687 40.7408 40.064 40.6754 40.064C40.0128 40.064 39.4854 40.26 39.0934 40.652C38.7014 41.0347 38.5054 41.6087 38.5054 42.374V46H36.7554ZM51.2075 46.14C50.4608 46.14 49.7655 46.0187 49.1215 45.776C48.4868 45.524 47.9315 45.174 47.4555 44.726C46.9888 44.2687 46.6248 43.732 46.3635 43.116C46.1021 42.5 45.9715 41.828 45.9715 41.1C45.9715 40.372 46.1021 39.7 46.3635 39.084C46.6248 38.468 46.9935 37.936 47.4695 37.488C47.9455 37.0307 48.5008 36.6807 49.1355 36.438C49.7701 36.186 50.4655 36.06 51.2215 36.06C52.0241 36.06 52.7568 36.2 53.4195 36.48C54.0821 36.7507 54.6421 37.1567 55.0995 37.698L53.9235 38.804C53.5688 38.4213 53.1721 38.1367 52.7335 37.95C52.2948 37.754 51.8188 37.656 51.3055 37.656C50.7921 37.656 50.3208 37.74 49.8915 37.908C49.4715 38.076 49.1028 38.314 48.7855 38.622C48.4775 38.93 48.2348 39.294 48.0575 39.714C47.8895 40.134 47.8055 40.596 47.8055 41.1C47.8055 41.604 47.8895 42.066 48.0575 42.486C48.2348 42.906 48.4775 43.27 48.7855 43.578C49.1028 43.886 49.4715 44.124 49.8915 44.292C50.3208 44.46 50.7921 44.544 51.3055 44.544C51.8188 44.544 52.2948 44.4507 52.7335 44.264C53.1721 44.068 53.5688 43.774 53.9235 43.382L55.0995 44.502C54.6421 45.034 54.0821 45.44 53.4195 45.72C52.7568 46 52.0195 46.14 51.2075 46.14ZM56.6753 46V35.612H58.4253V46H56.6753ZM64.0822 46.098C63.3169 46.098 62.6356 45.9347 62.0382 45.608C61.4409 45.272 60.9696 44.8147 60.6242 44.236C60.2789 43.6573 60.1062 42.9993 60.1062 42.262C60.1062 41.5153 60.2789 40.8573 60.6242 40.288C60.9696 39.7093 61.4409 39.2567 62.0382 38.93C62.6356 38.6033 63.3169 38.44 64.0822 38.44C64.8569 38.44 65.5429 38.6033 66.1402 38.93C66.7469 39.2567 67.2182 39.7047 67.5542 40.274C67.8996 40.8433 68.0722 41.506 68.0722 42.262C68.0722 42.9993 67.8996 43.6573 67.5542 44.236C67.2182 44.8147 66.7469 45.272 66.1402 45.608C65.5429 45.9347 64.8569 46.098 64.0822 46.098ZM64.0822 44.6C64.5116 44.6 64.8942 44.5067 65.2302 44.32C65.5662 44.1333 65.8276 43.8627 66.0142 43.508C66.2102 43.1533 66.3082 42.738 66.3082 42.262C66.3082 41.7767 66.2102 41.3613 66.0142 41.016C65.8276 40.6613 65.5662 40.3907 65.2302 40.204C64.8942 40.0173 64.5162 39.924 64.0962 39.924C63.6669 39.924 63.2842 40.0173 62.9482 40.204C62.6216 40.3907 62.3602 40.6613 62.1642 41.016C61.9682 41.3613 61.8702 41.7767 61.8702 42.262C61.8702 42.738 61.9682 43.1533 62.1642 43.508C62.3602 43.8627 62.6216 44.1333 62.9482 44.32C63.2842 44.5067 63.6622 44.6 64.0822 44.6ZM72.9097 46.098C72.275 46.098 71.715 45.9813 71.2297 45.748C70.7443 45.5053 70.3663 45.1413 70.0957 44.656C69.825 44.1613 69.6897 43.5407 69.6897 42.794V38.524H71.4397V42.556C71.4397 43.228 71.589 43.732 71.8877 44.068C72.1957 44.3947 72.6297 44.558 73.1897 44.558C73.6003 44.558 73.955 44.474 74.2537 44.306C74.5617 44.138 74.7997 43.886 74.9677 43.55C75.145 43.214 75.2337 42.7987 75.2337 42.304V38.524H76.9837V46H75.3177V43.984L75.6117 44.6C75.3597 45.0853 74.991 45.4587 74.5057 45.72C74.0203 45.972 73.4883 46.098 72.9097 46.098ZM82.439 46.098C81.7203 46.098 81.0716 45.9393 80.493 45.622C79.9236 45.2953 79.4756 44.8473 79.149 44.278C78.8223 43.7087 78.659 43.0367 78.659 42.262C78.659 41.4873 78.8223 40.8153 79.149 40.246C79.4756 39.6767 79.9236 39.2333 80.493 38.916C81.0716 38.5987 81.7203 38.44 82.439 38.44C83.0643 38.44 83.6243 38.58 84.119 38.86C84.6136 39.1307 85.0056 39.546 85.295 40.106C85.5843 40.666 85.729 41.3847 85.729 42.262C85.729 43.13 85.589 43.8487 85.309 44.418C85.029 44.978 84.6416 45.398 84.147 45.678C83.6523 45.958 83.083 46.098 82.439 46.098ZM82.649 44.6C83.069 44.6 83.4423 44.5067 83.769 44.32C84.105 44.1333 84.371 43.8627 84.567 43.508C84.7723 43.1533 84.875 42.738 84.875 42.262C84.875 41.7767 84.7723 41.3613 84.567 41.016C84.371 40.6613 84.105 40.3907 83.769 40.204C83.4423 40.0173 83.069 39.924 82.649 39.924C82.229 39.924 81.851 40.0173 81.515 40.204C81.1883 40.3907 80.9223 40.6613 80.717 41.016C80.521 41.3613 80.423 41.7767 80.423 42.262C80.423 42.738 80.521 43.1533 80.717 43.508C80.9223 43.8627 81.1883 44.1333 81.515 44.32C81.851 44.5067 82.229 44.6 82.649 44.6ZM84.917 46V44.236L84.987 42.248L84.847 40.26V35.612H86.583V46H84.917ZM97.4594 46.14C96.7128 46.14 96.0174 46.0187 95.3734 45.776C94.7388 45.524 94.1834 45.174 93.7074 44.726C93.2408 44.2687 92.8768 43.732 92.6154 43.116C92.3541 42.5 92.2234 41.828 92.2234 41.1C92.2234 40.372 92.3541 39.7 92.6154 39.084C92.8768 38.468 93.2454 37.936 93.7214 37.488C94.1974 37.0307 94.7528 36.6807 95.3874 36.438C96.0221 36.186 96.7174 36.06 97.4734 36.06C98.2761 36.06 99.0088 36.2 99.6714 36.48C100.334 36.7507 100.894 37.1567 101.351 37.698L100.175 38.804C99.8208 38.4213 99.4241 38.1367 98.9854 37.95C98.5468 37.754 98.0708 37.656 97.5574 37.656C97.0441 37.656 96.5728 37.74 96.1434 37.908C95.7234 38.076 95.3548 38.314 95.0374 38.622C94.7294 38.93 94.4868 39.294 94.3094 39.714C94.1414 40.134 94.0574 40.596 94.0574 41.1C94.0574 41.604 94.1414 42.066 94.3094 42.486C94.4868 42.906 94.7294 43.27 95.0374 43.578C95.3548 43.886 95.7234 44.124 96.1434 44.292C96.5728 44.46 97.0441 44.544 97.5574 44.544C98.0708 44.544 98.5468 44.4507 98.9854 44.264C99.4241 44.068 99.8208 43.774 100.175 43.382L101.351 44.502C100.894 45.034 100.334 45.44 99.6714 45.72C99.0088 46 98.2714 46.14 97.4594 46.14ZM106 46.098C105.235 46.098 104.554 45.9347 103.956 45.608C103.359 45.272 102.888 44.8147 102.542 44.236C102.197 43.6573 102.024 42.9993 102.024 42.262C102.024 41.5153 102.197 40.8573 102.542 40.288C102.888 39.7093 103.359 39.2567 103.956 38.93C104.554 38.6033 105.235 38.44 106 38.44C106.775 38.44 107.461 38.6033 108.058 38.93C108.665 39.2567 109.136 39.7047 109.472 40.274C109.818 40.8433 109.99 41.506 109.99 42.262C109.99 42.9993 109.818 43.6573 109.472 44.236C109.136 44.8147 108.665 45.272 108.058 45.608C107.461 45.9347 106.775 46.098 106 46.098ZM106 44.6C106.43 44.6 106.812 44.5067 107.148 44.32C107.484 44.1333 107.746 43.8627 107.932 43.508C108.128 43.1533 108.226 42.738 108.226 42.262C108.226 41.7767 108.128 41.3613 107.932 41.016C107.746 40.6613 107.484 40.3907 107.148 40.204C106.812 40.0173 106.434 39.924 106.014 39.924C105.585 39.924 105.202 40.0173 104.866 40.204C104.54 40.3907 104.278 40.6613 104.082 41.016C103.886 41.3613 103.788 41.7767 103.788 42.262C103.788 42.738 103.886 43.1533 104.082 43.508C104.278 43.8627 104.54 44.1333 104.866 44.32C105.202 44.5067 105.58 44.6 106 44.6ZM115.906 38.44C116.503 38.44 117.035 38.5567 117.502 38.79C117.978 39.0233 118.351 39.3827 118.622 39.868C118.892 40.344 119.028 40.96 119.028 41.716V46H117.278V41.94C117.278 41.2773 117.119 40.7827 116.802 40.456C116.494 40.1293 116.06 39.966 115.5 39.966C115.089 39.966 114.725 40.05 114.408 40.218C114.09 40.386 113.843 40.638 113.666 40.974C113.498 41.3007 113.414 41.716 113.414 42.22V46H111.664V38.524H113.33V40.54L113.036 39.924C113.297 39.448 113.675 39.084 114.17 38.832C114.674 38.5707 115.252 38.44 115.906 38.44ZM124.062 46.098C123.24 46.098 122.606 45.888 122.158 45.468C121.71 45.0387 121.486 44.4087 121.486 43.578V36.872H123.236V43.536C123.236 43.8907 123.324 44.166 123.502 44.362C123.688 44.558 123.945 44.656 124.272 44.656C124.664 44.656 124.99 44.5533 125.252 44.348L125.742 45.594C125.536 45.762 125.284 45.888 124.986 45.972C124.687 46.056 124.379 46.098 124.062 46.098ZM120.254 39.98V38.58H125.238V39.98H120.254ZM127.181 46V38.524H128.847V40.582L128.651 39.98C128.875 39.476 129.225 39.0933 129.701 38.832C130.187 38.5707 130.789 38.44 131.507 38.44V40.106C131.433 40.0873 131.363 40.078 131.297 40.078C131.232 40.0687 131.167 40.064 131.101 40.064C130.439 40.064 129.911 40.26 129.519 40.652C129.127 41.0347 128.931 41.6087 128.931 42.374V46H127.181ZM136.283 46.098C135.518 46.098 134.837 45.9347 134.239 45.608C133.642 45.272 133.171 44.8147 132.825 44.236C132.48 43.6573 132.307 42.9993 132.307 42.262C132.307 41.5153 132.48 40.8573 132.825 40.288C133.171 39.7093 133.642 39.2567 134.239 38.93C134.837 38.6033 135.518 38.44 136.283 38.44C137.058 38.44 137.744 38.6033 138.341 38.93C138.948 39.2567 139.419 39.7047 139.755 40.274C140.101 40.8433 140.273 41.506 140.273 42.262C140.273 42.9993 140.101 43.6573 139.755 44.236C139.419 44.8147 138.948 45.272 138.341 45.608C137.744 45.9347 137.058 46.098 136.283 46.098ZM136.283 44.6C136.713 44.6 137.095 44.5067 137.431 44.32C137.767 44.1333 138.029 43.8627 138.215 43.508C138.411 43.1533 138.509 42.738 138.509 42.262C138.509 41.7767 138.411 41.3613 138.215 41.016C138.029 40.6613 137.767 40.3907 137.431 40.204C137.095 40.0173 136.717 39.924 136.297 39.924C135.868 39.924 135.485 40.0173 135.149 40.204C134.823 40.3907 134.561 40.6613 134.365 41.016C134.169 41.3613 134.071 41.7767 134.071 42.262C134.071 42.738 134.169 43.1533 134.365 43.508C134.561 43.8627 134.823 44.1333 135.149 44.32C135.485 44.5067 135.863 44.6 136.283 44.6ZM141.947 46V35.612H143.697V46H141.947Z" fill="#78B591"/>
<g opacity="0.7" filter="url(#filter0_f_176_307)">
<path d="M87.0915 12.3541C88.2415 12.43 89.3969 12.4458 90.5387 12.596C91.8381 12.7667 93.1333 13.0149 94.4178 13.3089C96.5507 13.7989 98.6851 14.3 100.798 14.896C102.594 15.4018 104.36 16.0515 106.142 16.6333C108.879 17.5296 111.482 18.8432 114.09 20.1315C116.113 21.1305 118.107 22.2102 120.133 23.2029C121.692 23.968 123.257 24.7315 124.861 25.3544C126.645 26.0483 128.461 26.6443 130.29 27.1627C131.416 27.4821 132.585 27.6386 133.743 27.7508C134.953 27.8662 136.173 27.8646 137.39 27.8662C137.908 27.8662 138.426 27.7476 138.982 27.7745C138.633 28.0243 138.287 28.2772 137.936 28.5206C137.395 28.8953 136.86 29.2794 136.308 29.6256C136.111 29.7489 135.868 29.839 135.646 29.8374C134.221 29.8232 132.797 29.7805 131.371 29.741C130.393 29.7141 129.416 29.6746 128.438 29.643C127.237 29.605 126.035 29.5703 124.835 29.5323C123.917 29.5023 122.999 29.4659 122.08 29.4359C120.849 29.3964 119.617 29.3632 118.387 29.3237C117.499 29.2952 116.61 29.2588 115.722 29.2288C114.507 29.1893 113.29 29.1545 112.074 29.1166C111.051 29.0834 110.029 29.0486 109.006 29.0138C107.969 28.9791 106.932 28.9459 105.895 28.9111C104.872 28.8779 103.85 28.8415 102.829 28.8099C101.582 28.7704 100.336 28.7372 99.091 28.6977C98.1719 28.6676 97.254 28.6313 96.3349 28.6012C95.2079 28.5633 94.081 28.5301 92.9541 28.4938C91.887 28.459 90.8198 28.4258 89.7526 28.3878C89.6426 28.3847 89.5327 28.3626 89.3018 28.3341C89.4512 28.244 89.4919 28.1982 89.534 28.1966C90.3324 28.1586 91.1321 28.1444 91.929 28.0875C93.223 27.9958 94.5155 27.8725 95.8094 27.7729C96.4136 27.7255 97.0192 27.6939 97.6247 27.667C98.4977 27.6275 99.3721 27.618 100.244 27.5595C101.523 27.4726 102.799 27.3477 104.078 27.2544C104.478 27.226 104.886 27.2829 105.285 27.2434C106.478 27.1248 107.664 26.9683 108.708 26.1764C109.684 25.435 110.166 23.2662 109.559 22.3541C109.292 21.9525 108.947 21.5242 108.556 21.3424C106.294 20.2896 104.033 19.2131 101.72 18.3294C99.7346 17.5691 97.6912 16.9953 95.6506 16.4546C94.4028 16.1243 93.1103 16.0341 91.8422 15.8049C89.4268 15.3702 86.9924 15.4603 84.5675 15.5188C83.2994 15.5489 82.0258 15.7717 80.7753 16.031C79.1135 16.3772 77.4557 16.7803 75.8224 17.2735C73.1585 18.0765 70.6399 19.3427 68.2042 20.8128C65.2946 22.569 62.5723 24.6699 60.0185 27.0632C59.6641 27.3951 59.3233 27.7492 58.9554 28.0622C58.8128 28.1839 58.6173 28.263 58.4408 28.2788C57.8841 28.3309 57.3234 28.3467 56.764 28.3752C56.669 28.3452 56.5726 28.2914 56.4775 28.2898C54.4002 28.2867 52.3229 28.2898 50.2456 28.2962C50.1492 28.2962 50.0528 28.3483 49.955 28.3768C49.4703 28.3467 48.9856 28.2867 48.5022 28.293C47.4948 28.3072 46.4874 28.3515 45.4799 28.391C43.852 28.4558 42.2241 28.5096 40.5976 28.6044C39.3783 28.6755 38.1605 28.7815 36.9453 28.9158C35.6758 29.0565 34.4104 29.2351 33.145 29.4232C31.6108 29.6525 30.0671 29.8422 28.5491 30.1773C26.6877 30.5883 24.8208 31.0309 23.0042 31.649C20.9988 32.3319 19.0179 33.146 17.0818 34.0612C15.5829 34.7694 14.1695 35.7194 12.7181 36.562C12.5646 36.6505 12.4112 36.7375 12.1926 36.7564C12.3203 36.5462 12.4316 36.317 12.5796 36.1304C14.2306 34.0628 16.1667 32.4504 18.3431 31.2111C21.0409 29.6746 23.8704 28.5949 26.8045 27.8725C28.0685 27.5611 29.3285 27.226 30.5993 26.9604C31.5334 26.766 32.4811 26.6648 33.4234 26.5257C34.6277 26.3487 35.832 26.1621 37.0376 26.004C37.5495 25.9377 38.0695 25.9392 38.5841 25.8966C39.787 25.797 40.99 25.6879 42.1929 25.5851C42.311 25.5757 42.4319 25.5836 42.55 25.582C44.8988 25.5393 47.2477 25.4966 49.5966 25.4524C49.9564 25.4524 50.3148 25.4524 50.6746 25.4524C52.1871 25.6784 53.5951 25.133 55.003 24.6335C58.1828 23.5049 61.1657 21.8514 64.0876 20.0287C66.006 18.8321 67.934 17.6481 69.8945 16.5495C72.5502 15.0604 75.3214 13.9159 78.2133 13.222C79.4665 12.9216 80.7468 12.7525 82.0217 12.5928C83.0767 12.46 84.1398 12.4284 85.2002 12.3525C85.8301 12.3525 86.4601 12.3525 87.0901 12.3525L87.0915 12.3541Z" fill="white"/>
<path d="M131.374 48.4715C131.071 48.5047 130.768 48.568 130.464 48.568C115.42 48.5727 100.378 48.5727 85.3345 48.5711C83.6495 48.5711 81.9659 48.5616 80.281 48.5585C80.4236 48.5284 80.5648 48.4715 80.7073 48.4715C97.5662 48.4668 114.425 48.4668 131.284 48.4668C131.314 48.4668 131.344 48.47 131.374 48.4715Z" fill="#009CCC"/>
<path d="M132.165 44.3296C132.201 44.328 132.235 44.3248 132.27 44.3232C132.245 44.3359 132.222 44.3517 132.197 44.3596C132.188 44.3612 132.175 44.3406 132.165 44.3296Z" fill="#457488"/>
<path d="M115.179 32.3747C115.156 32.3842 115.134 32.3984 115.111 32.4032C115.105 32.4032 115.095 32.3779 115.086 32.3652C115.118 32.3684 115.148 32.3716 115.179 32.3747Z" fill="#D2D4D6"/>
<path d="M82.8824 32.3662C82.8566 32.3931 82.8308 32.4215 82.8064 32.4484C82.8322 32.4215 82.858 32.3931 82.8824 32.3662Z" fill="#D2D4D6"/>
<path d="M21.8447 27.5011L23.7143 22.9516C23.7999 22.7446 23.9832 22.6181 24.18 22.6308L48.9436 24.9719C48.9436 24.9719 32.7975 23.6266 22.453 28.2741C22.0443 28.4575 21.6547 27.9595 21.8434 27.4995L21.8447 27.5011Z" fill="#C94480"/>
</g>
<path d="M89.742 12.3541C90.9327 12.43 92.129 12.4458 93.3113 12.596C94.6566 12.7667 95.9977 13.0149 97.3275 13.3089C99.536 13.7989 101.746 14.3 103.933 14.896C105.793 15.4018 107.622 16.0515 109.466 16.6333C112.3 17.5296 114.995 18.8432 117.696 20.1315C119.79 21.1305 121.855 22.2102 123.953 23.2029C125.567 23.968 127.188 24.7315 128.848 25.3544C130.695 26.0483 132.576 26.6443 134.469 27.1627C135.635 27.4821 136.845 27.6386 138.044 27.7508C139.297 27.8662 140.561 27.8646 141.82 27.8662C142.357 27.8662 142.893 27.7476 143.469 27.7745C143.108 28.0243 142.749 28.2772 142.385 28.5206C141.826 28.8953 141.272 29.2794 140.7 29.6256C140.496 29.7489 140.244 29.839 140.015 29.8374C138.539 29.8232 137.064 29.7805 135.588 29.741C134.576 29.7141 133.564 29.6746 132.552 29.643C131.308 29.605 130.064 29.5703 128.821 29.5323C127.871 29.5023 126.92 29.4659 125.969 29.4359C124.694 29.3964 123.419 29.3632 122.145 29.3237C121.226 29.2952 120.305 29.2588 119.386 29.2288C118.127 29.1893 116.868 29.1545 115.608 29.1166C114.55 29.0834 113.491 29.0486 112.433 29.0138C111.359 28.9791 110.285 28.9459 109.211 28.9111C108.152 28.8779 107.093 28.8415 106.036 28.8099C104.746 28.7704 103.455 28.7372 102.166 28.6977C101.215 28.6676 100.264 28.6313 99.3125 28.6012C98.1457 28.5633 96.9789 28.5301 95.8121 28.4938C94.7072 28.459 93.6023 28.4258 92.4973 28.3878C92.3834 28.3847 92.2696 28.3626 92.0306 28.3341C92.1852 28.244 92.2274 28.1982 92.271 28.1966C93.0976 28.1586 93.9256 28.1444 94.7508 28.0875C96.0905 27.9958 97.4288 27.8725 98.7685 27.7729C99.394 27.7255 100.021 27.6939 100.648 27.667C101.552 27.6275 102.457 27.618 103.36 27.5595C104.684 27.4726 106.005 27.3477 107.33 27.2544C107.744 27.226 108.166 27.2829 108.579 27.2434C109.815 27.1248 111.042 26.9683 112.123 26.1764C113.134 25.435 113.633 23.2662 113.005 22.3541C112.728 21.9525 112.371 21.5242 111.966 21.3424C109.624 20.2896 107.283 19.2131 104.888 18.3294C102.833 17.5691 100.717 16.9953 98.604 16.4546C97.3121 16.1243 95.9738 16.0341 94.6608 15.8049C92.1599 15.3702 89.6394 15.4603 87.1287 15.5188C85.8157 15.5489 84.4971 15.7717 83.2024 16.031C81.4817 16.3772 79.7652 16.7803 78.0741 17.2735C75.316 18.0765 72.7083 19.3427 70.1863 20.8128C67.1737 22.569 64.3552 24.6699 61.7109 27.0632C61.344 27.3951 60.9912 27.7492 60.6102 28.0622C60.4626 28.1839 60.2602 28.263 60.0774 28.2788C59.5011 28.3309 58.9205 28.3467 58.3413 28.3752C58.2429 28.3452 58.1431 28.2914 58.0447 28.2898C55.8938 28.2867 53.743 28.2898 51.5922 28.2962C51.4924 28.2962 51.3926 28.3483 51.2913 28.3768C50.7895 28.3467 50.2876 28.2867 49.7872 28.293C48.7441 28.3072 47.701 28.3515 46.6579 28.391C44.9724 28.4558 43.2869 28.5096 41.6028 28.6044C40.3404 28.6755 39.0794 28.7815 37.8212 28.9158C36.5069 29.0565 35.1967 29.2351 33.8865 29.4232C32.298 29.6525 30.6996 29.8422 29.128 30.1773C27.2006 30.5883 25.2677 31.0309 23.3868 31.649C21.3105 32.3319 19.2594 33.146 17.2548 34.0612C15.7028 34.7694 14.2394 35.7194 12.7367 36.562C12.5778 36.6505 12.419 36.7375 12.1926 36.7564C12.3248 36.5462 12.44 36.317 12.5933 36.1304C14.3027 34.0628 16.3073 32.4504 18.5608 31.2111C21.354 29.6746 24.2837 28.5949 27.3215 27.8725C28.6303 27.5611 29.9349 27.226 31.2507 26.9604C32.2178 26.766 33.1991 26.6648 34.1747 26.5257C35.4216 26.3487 36.6685 26.1621 37.9168 26.004C38.4468 25.9377 38.9852 25.9392 39.518 25.8966C40.7635 25.797 42.009 25.6879 43.2546 25.5851C43.3769 25.5757 43.502 25.5836 43.6243 25.582C46.0563 25.5393 48.4882 25.4966 50.9202 25.4524C51.2928 25.4524 51.6639 25.4524 52.0364 25.4524C53.6024 25.6784 55.0602 25.133 56.518 24.6335C59.8103 23.5049 62.8988 21.8514 65.924 20.0287C67.9104 18.8321 69.9066 17.6481 71.9365 16.5495C74.6862 15.0604 77.5554 13.9159 80.5497 13.222C81.8472 12.9216 83.1728 12.7525 84.4929 12.5928C85.5851 12.46 86.6859 12.4284 87.7838 12.3525C88.436 12.3525 89.0883 12.3525 89.7406 12.3525L89.742 12.3541Z" fill="white"/>
<path d="M136.411 44.3296C136.448 44.328 136.484 44.3248 136.521 44.3232C136.495 44.3359 136.471 44.3517 136.444 44.3596C136.435 44.3612 136.421 44.3406 136.411 44.3296Z" fill="#457488"/>
<path d="M118.825 32.3747C118.801 32.3842 118.778 32.3984 118.753 32.4032C118.748 32.4032 118.736 32.3779 118.728 32.3652C118.76 32.3684 118.792 32.3716 118.825 32.3747Z" fill="#D2D4D6"/>
<path d="M85.3856 32.3662C85.3584 32.3931 85.3312 32.4215 85.3054 32.4484C85.3326 32.4215 85.3598 32.3931 85.3856 32.3662Z" fill="#D2D4D6"/>
<path d="M22.1864 27.5011L24.1221 22.9516C24.2107 22.7446 24.4005 22.6181 24.6043 22.6308L50.2442 24.9719C50.2442 24.9719 33.5267 23.6266 22.8162 28.2741C22.393 28.4575 21.9896 27.9595 22.185 27.4995L22.1864 27.5011Z" fill="#78B591"/>
<defs>
<filter id="filter0_f_176_307" x="0.192627" y="0.352539" width="150.79" height="60.2197" filterUnits="userSpaceOnUse" color-interpolation-filters="sRGB">
<feFlood flood-opacity="0" result="BackgroundImageFix"/>
<feBlend mode="normal" in="SourceGraphic" in2="BackgroundImageFix" result="shape"/>
<feGaussianBlur stdDeviation="6" result="effect1_foregroundBlur_176_307"/>
</filter>
</defs>
</svg>
