<svg width="14" height="14" viewBox="0 0 14 14" fill="none" xmlns="http://www.w3.org/2000/svg">
<path d="M5.05 1H2.095C1.49025 1 1 1.49025 1 2.095V5.05C1 5.65475 1.49025 6.145 2.095 6.145H5.05C5.65475 6.145 6.145 5.65475 6.145 5.05V2.095C6.145 1.49025 5.65475 1 5.05 1Z" stroke="#1C1C1E" stroke-linecap="round" stroke-linejoin="round"/>
<path d="M11.905 1H8.95C8.34525 1 7.855 1.49025 7.855 2.095V5.05C7.855 5.65475 8.34525 6.145 8.95 6.145H11.905C12.5098 6.145 13 5.65475 13 5.05V2.095C13 1.49025 12.5098 1 11.905 1Z" stroke="#1C1C1E" stroke-linecap="round" stroke-linejoin="round"/>
<path d="M5.05 7.855H2.095C1.49025 7.855 1 8.34525 1 8.95V11.905C1 12.5098 1.49025 13 2.095 13H5.05C5.65475 13 6.145 12.5098 6.145 11.905V8.95C6.145 8.34525 5.65475 7.855 5.05 7.855Z" stroke="#1C1C1E" stroke-linecap="round" stroke-linejoin="round"/>
<path d="M11.905 7.855H8.95C8.34525 7.855 7.855 8.34525 7.855 8.95V11.905C7.855 12.5098 8.34525 13 8.95 13H11.905C12.5098 13 13 12.5098 13 11.905V8.95C13 8.34525 12.5098 7.855 11.905 7.855Z" stroke="#1C1C1E" stroke-linecap="round" stroke-linejoin="round"/>
</svg>
