<svg width="9" height="9" viewBox="0 0 9 9" fill="none" xmlns="http://www.w3.org/2000/svg">
<rect width="9" height="9" fill="white" fill-opacity="0.01"/>
<path fill-rule="evenodd" clip-rule="evenodd" d="M4.50008 0.956022C6.4543 0.956022 8.04406 2.54579 8.04406 4.5C8.04406 6.4543 6.4543 8.04406 4.50008 8.04406C2.54587 8.04406 0.955937 6.4543 0.955937 4.5C0.955937 2.54579 2.54587 0.956022 4.50008 0.956022ZM4.50008 8.62508C6.77471 8.62508 8.62508 6.77462 8.62508 4.5C8.62508 2.22546 6.77471 0.375 4.50008 0.375C2.22546 0.375 0.375 2.22546 0.375 4.5C0.375 6.77462 2.22546 8.62508 4.50008 8.62508Z" fill="black"/>
<path fill-rule="evenodd" clip-rule="evenodd" d="M3.81334 6.32032C3.65292 6.32032 3.52283 6.45042 3.52283 6.61083C3.52283 6.77116 3.65292 6.90134 3.81334 6.90134H5.7269C5.88731 6.90134 6.01741 6.77116 6.01741 6.61083C6.01741 6.45042 5.88731 6.32032 5.7269 6.32032H5.06059V3.75426C5.06059 3.59392 4.93049 3.46375 4.77016 3.46375H3.81334C3.65292 3.46375 3.52283 3.59392 3.52283 3.75426C3.52283 3.91467 3.65292 4.04477 3.81334 4.04477H4.47965V6.32032H3.81334Z" fill="black"/>
<path fill-rule="evenodd" clip-rule="evenodd" d="M4.37246 2.97868C4.63214 2.97868 4.8427 2.76813 4.8427 2.50845C4.8427 2.24868 4.63214 2.03821 4.37246 2.03821C4.11278 2.03821 3.90222 2.24868 3.90222 2.50845C3.90222 2.76813 4.11278 2.97868 4.37246 2.97868Z" fill="black"/>
</svg>
