<svg width="44" height="44" viewBox="0 0 44 44" fill="none" xmlns="http://www.w3.org/2000/svg">
<g clip-path="url(#clip0_166_339)">
<circle cx="22" cy="22" r="22" stroke="#78B591" stroke-width="3"/>
<path d="M22 29.808C26.0501 29.808 29.3334 26.4931 29.3334 22.404C29.3334 18.3149 26.0501 15 22 15C17.9499 15 14.6666 18.3149 14.6666 22.404C14.6666 26.4931 17.9499 29.808 22 29.808ZM22 29.808C24.4384 29.808 26.8372 30.4303 28.9735 31.6172C31.1098 32.804 32.9143 34.5168 34.2193 36.5965C34.7137 37.4306 34.9827 38.3811 34.9992 39.3531C35.0157 40.325 34.7792 41.2843 34.3134 42.135C33.8475 42.9858 33.1686 43.6981 32.3446 44.2009C31.5205 44.7037 30.5802 44.9792 29.6176 45H14.3824C13.4198 44.9792 12.4795 44.7037 11.6554 44.2009C10.8314 43.6981 10.1525 42.9858 9.68664 42.135C9.22078 41.2843 8.9843 40.325 9.00081 39.3531C9.01732 38.3811 9.28627 37.4306 9.78074 36.5965C11.0857 34.5168 12.8902 32.804 15.0265 31.6172C17.1628 30.4303 19.5616 29.808 22 29.808Z" stroke="white" stroke-linecap="round" stroke-linejoin="round"/>
</g>
<defs>
<clipPath id="clip0_166_339">
<rect width="44" height="44" rx="22" fill="white"/>
</clipPath>
</defs>
</svg>
